Coordinates
version=1
nRows=16
nColumns=36
inDegrees=yes

Units are S.I. units (second, meters, Newtons, ...)
If the header above contains a line with 'inDegrees', this indicates whether rotational values are in degrees (yes) or radians (no).

endheader
time	pelvis_tilt	pelvis_list	pelvis_rotation	pelvis_tx	pelvis_ty	pelvis_tz	hip_flexion_r	hip_adduction_r	hip_rotation_r	knee_angle_r	knee_angle_r_beta	ankle_angle_r	subtalar_angle_r	mtp_angle_r	hip_flexion_l	hip_adduction_l	hip_rotation_l	knee_angle_l	knee_angle_l_beta	ankle_angle_l	subtalar_angle_l	mtp_angle_l	lumbar_extension	lumbar_bending	lumbar_rotation	arm_flex_r	arm_add_r	arm_rot_r	elbow_flex_r	pro_sup_r	arm_flex_l	arm_add_l	arm_rot_l	elbow_flex_l	pro_sup_l
      0.00000000	     -1.93489179	      0.75335817	     -0.06316059	     -0.93776446	      1.30298342	     -0.04727974	      0.37496878	     -1.36717337	      2.01201187	      4.61651640	      0.08057341	      8.56351807	     -5.76351989	     -6.06847247	      0.39979806	     -0.65890399	      1.40046561	      5.37492191	      0.09381008	      5.61830785	     -4.10471024	     -6.06847247	     -9.95260733	     -0.58814432	     -1.10715403	     14.70406396	     -2.96923545	     21.90636523	    112.40734942	     96.18127136	     23.12365288	     -7.87082165	     32.26193192	    106.89878749	     92.94589350
      0.00416670	     -2.89405094	      0.31723757	      0.55744763	     -0.93820538	      1.29980937	     -0.04772110	      0.67658047	     -0.63887227	      2.13445794	      3.62731687	      0.06330862	      9.75246757	     -3.13210432	     -6.26718490	      0.86375755	     -0.94544488	      2.57766369	      3.88692249	      0.06783960	      4.61654343	     -3.37442370	     -6.26718490	     -8.85831616	     -0.00231926	     -1.27094942	     14.60824963	     -2.79775250	     21.69100809	    111.82139577	     96.27994001	     23.88527266	     -8.25626542	     32.44495874	    105.94071563	     91.85098889
      0.00833330	     -3.39477796	      0.30603081	      0.50157007	     -0.93865939	      1.29970908	     -0.04685679	      1.05217861	     -0.49811491	      2.22562241	      3.21960397	      0.05619269	      9.95790989	     -3.53356768	     -6.57469343	      1.29068340	     -0.95426059	      1.80966371	      3.37852584	      0.05896640	      4.66481444	     -2.57116221	     -6.57469343	     -8.87733570	     -0.20997654	     -1.00893736	     13.86068363	     -3.19365319	     22.31341955	    113.12856714	     99.51708675	     24.51442672	     -8.34145346	     32.60442187	    106.14247722	     89.18137359
      0.01250000	     -3.23483958	      0.29151767	      0.47196004	     -0.93917063	      1.29978912	     -0.04669204	      0.74209967	     -0.49334371	      2.37922009	      2.68283345	      0.04682428	     10.08906762	     -3.37081698	     -6.65647200	      0.72029298	     -0.87094213	      1.73194675	      2.28106451	      0.03981209	      4.29327050	     -2.45937733	     -6.65647200	     -9.43283085	     -0.25691138	     -0.84933095	     13.93044777	     -3.46040011	     23.12504585	    113.62981839	     98.79234031	     25.00631275	     -8.17945953	     32.62823339	    106.12474098	     87.63208858
      0.01666670	     -3.26791214	      0.29442779	      0.18439000	     -0.93933211	      1.29974520	     -0.04639466	      0.69859846	     -0.48939990	      2.58800063	      2.37264641	      0.04141049	     10.28696803	     -3.26056825	     -6.99742432	      0.51577858	     -0.79713809	      1.42797516	      1.72384954	      0.03008685	      4.64209407	     -1.87652747	     -6.99742432	     -9.66091284	     -0.28188318	     -0.44781856	     13.70084656	     -3.41404063	     23.22403501	    113.73257693	     98.38722954	     25.44610050	     -7.98304839	     33.28445878	    106.08489477	     83.20529154
      0.02083330	     -3.14556651	      0.38276233	     -0.00153698	     -0.93945783	      1.30308423	     -0.04596620	      0.64475594	     -0.59748124	      2.88487223	      2.42972547	      0.04240671	     10.05722357	     -3.72639952	     -7.19473548	      0.22623994	     -0.66787414	      1.52625161	      1.42713963	      0.02490829	      4.66531357	     -2.11582173	     -7.19473548	     -9.86259698	     -0.40027149	     -0.23463884	     13.74679447	     -3.14990594	     22.95382109	    113.25654741	     99.39649297	     25.33619354	     -8.07672690	     33.18445058	    105.52666294	     81.70268193
      0.02500000	     -3.01871082	      0.48570358	     -0.05302397	     -0.93985084	      1.29965454	     -0.04588744	      0.56853188	     -0.71725847	      3.01338562	      2.52011264	      0.04398426	     10.01796413	     -4.00476055	     -7.24205554	      0.00540839	     -0.55735398	      1.56006057	      1.31441129	      0.02294080	      4.88086144	     -2.10440039	     -7.24205554	    -10.06671888	     -0.51626102	     -0.20949967	     13.92607769	     -2.82817619	     22.82740346	    113.32934280	     98.30052604	     25.29608553	     -7.84651557	     32.89529222	    105.49937442	     80.60987086
      0.02916670	     -2.94118883	      0.56280219	     -0.27003931	     -0.94000574	      1.29965456	     -0.04553717	      0.57877715	     -0.82235627	      3.14582383	      2.73129993	      0.04767018	      9.92096901	     -4.31432891	     -7.29543408	     -0.10321158	     -0.47639705	      1.52624675	      1.36811096	      0.02387804	      5.04892704	     -2.25733851	     -7.29543408	    -10.23289202	     -0.62669263	     -0.16591394	     14.24167784	     -2.59636312	     22.46626608	    113.18515869	     94.84840704	     25.33749029	     -7.60584304	     32.52429734	    105.37080061	     78.14950146
      0.03333330	     -2.77017866	      0.62657394	     -0.53118696	     -0.94003696	      1.29998094	     -0.04523715	      0.43578764	     -0.91752867	      3.42422004	      2.85387227	      0.04980947	      9.57632175	     -4.98459169	     -7.33752218	     -0.31758280	     -0.41373715	      1.32972042	      1.43808689	      0.02509935	      5.19355847	     -2.23102819	     -7.33752218	    -10.47064428	     -0.65985485	     -0.10549980	     14.28306249	     -2.50697601	     22.21364790	    113.01305707	     92.23639160	     25.41317469	     -7.42593112	     32.14469428	    105.12934436	     76.25968660
      0.03750000	     -2.53248486	      0.63819169	     -0.49052914	     -0.94028777	      1.30023799	     -0.04530216	      0.08537592	     -0.98357679	      3.01433706	      2.77276153	      0.04839382	      9.41246401	     -5.11295641	     -7.38468720	     -0.56601080	     -0.42709790	      1.73643516	      1.50665129	      0.02629603	      4.91335713	     -3.29753816	     -7.38468720	    -10.71854084	     -0.75571576	      0.00550048	     14.07942107	     -2.13606004	     21.03772394	    112.72544743	     99.63082342	     26.08054346	     -7.24423887	     32.80388534	    104.36040985	     76.44794815
      0.04166670	     -2.36112093	      0.61912954	     -0.56536581	     -0.94042275	      1.30059321	     -0.04525319	     -0.19024987	     -0.98469830	      2.82581883	      2.60222552	      0.04541740	      9.26874834	     -5.17916498	     -7.42621050	     -0.71847277	     -0.48314752	      1.60498917	      1.54970808	      0.02704751	      5.07949475	     -3.22900288	     -7.42621050	    -10.97006887	     -0.74810013	     -0.15384612	     14.04392152	     -1.86919743	     20.80444577	    112.06996076	     99.79692719	     26.26780155	     -7.38009357	     33.19414072	    104.02163977	     74.91227673
      0.04583330	     -2.23711479	      0.60457307	     -0.63578039	     -0.94056898	      1.30085903	     -0.04513490	     -0.37982531	     -0.97248487	      2.87603732	      2.46155638	      0.04296226	      8.93170575	     -5.68948322	     -7.45505316	     -0.84624215	     -0.52423141	      1.63401992	      1.65366872	      0.02886196	      4.98193313	     -3.75407710	     -7.45505316	    -11.18179714	     -0.72616398	     -0.17954794	     13.98967916	     -1.65989563	     20.56979792	    111.36535724	    100.49163598	     26.44949332	     -7.51245257	     33.26773745	    103.62664906	     73.98574922
      0.05000000	     -2.09211694	      0.59105662	     -0.56370983	     -0.94070376	      1.30124982	     -0.04521056	     -0.62402319	     -0.94801074	      2.78476615	      2.32817911	      0.04063439	      8.83182656	     -5.76095779	     -7.46317244	     -1.00210568	     -0.57656370	      1.74425524	      1.74850962	      0.03051725	      4.76812731	     -4.29071237	     -7.46317244	    -11.46221190	     -0.69718574	     -0.29729987	     13.98336602	     -1.60493591	     20.27226069	    110.55425306	     97.45373191	     26.27194180	     -7.46796629	     33.07402200	    103.25026992	     72.55209579
      0.05416670	     -1.93767513	      0.57203017	     -0.52693248	     -0.94090239	      1.30140591	     -0.04524148	     -0.88237033	     -0.89797660	      2.81603995	      2.22220938	      0.03878487	      8.65422716	     -6.09487275	     -7.47478177	     -1.14033793	     -0.61145574	      1.81251311	      1.78748246	      0.03119745	      4.66709139	     -4.65055644	     -7.47478177	    -11.74777172	     -0.70011164	     -0.33790869	     13.93656952	     -1.50657410	     19.61763325	    109.87851216	    100.50561213	     26.29675095	     -7.47920571	     33.17250843	    102.49451406	     72.01620413
      0.05833330	     -1.84032193	      0.53166562	     -0.43352699	     -0.94098578	      1.30163728	     -0.04525102	     -1.04389211	     -0.82943022	      2.93652492	      2.12901022	      0.03715824	      8.47565589	     -6.47850133	     -7.49303195	     -1.20924635	     -0.65835003	      1.86036031	      1.81506238	      0.03167881	      4.62649205	     -4.97045690	     -7.49303195	    -12.01904891	     -0.59028655	     -0.25098389	     13.63472843	     -1.57138846	     18.99970142	    109.82447649	    100.31892610	     26.18765490	     -7.35675818	     33.26058090	    101.98272962	     70.68824297
      0.06250000	     -1.68432725	      0.49074009	     -0.18086771	     -0.94108379	      1.30184994	     -0.04553071	     -1.28378644	     -0.76670918	      2.52311974	      1.99843965	      0.03487935	      8.58858644	     -6.03170095	     -7.49455539	     -1.30933948	     -0.70467990	      2.14905424	      1.87239316	      0.03267943	      4.46505584	     -5.43560387	     -7.49455539	    -12.31223080	     -0.45351602	     -0.51035307	     13.64511263	     -1.55651721	     19.19830511	    109.59584507	     96.77502635	     25.86942287	     -7.23295502	     32.97130380	    101.66620132	     69.54834921
